<?xml version="1.0" encoding="utf-8"?>
<!-- Generator: Adobe Illustrator 21.0.0, SVG Export Plug-In . SVG Version: 6.00 Build 0)  -->
<svg version="1.1" id="Layer_1" xmlns="http://www.w3.org/2000/svg" xmlns:xlink="http://www.w3.org/1999/xlink" x="0px" y="0px"
	 viewBox="0 0 512 512" style="enable-background:new 0 0 512 512;" xml:space="preserve">
<g>
	<path d="M215.8,346.2c-6.7-6.7-17.5-6.7-24.1,0c-6.6,6.7-6.7,17.6,0,24.3l39.1,39.1h-65.5c-6.5,0-12.7-1.3-18.3-3.7
		c-8.4-3.5-15.6-9.5-20.7-17c-2.5-3.7-4.5-7.9-5.9-12.3c-1.4-4.4-2.1-9.1-2.1-14V151.7c3.7-0.9,7.3-2,10.7-3.5
		c12.3-5.2,22.7-13.8,30-24.7c3.7-5.4,6.6-11.5,8.6-17.9c2-6.4,3.1-13.3,3.1-20.3c0-9.4-1.9-18.4-5.4-26.6
		c-5.2-12.3-13.8-22.7-24.7-30c-5.4-3.7-11.5-6.6-17.9-8.6c-6.4-2-13.3-3.1-20.3-3.1v0.1C93,17.1,84,19,75.8,22.4
		c-12.3,5.2-22.7,13.8-30,24.7c-3.7,5.4-6.6,11.5-8.6,17.9s-3.1,13.3-3.1,20.3c0,9.4,1.9,18.4,5.4,26.6c5.2,12.3,13.8,22.7,24.7,30
		c5.4,3.7,11.5,6.6,17.9,8.6c0.7,0.2,1.3,0.4,2,0.6v211.5c0,11.1,2.3,21.9,6.4,31.6c6.2,14.6,16.4,26.9,29.4,35.7
		c6.5,4.4,13.6,7.8,21.2,10.2c7.6,2.4,15.7,3.6,24.1,3.6h65.7l-39.2,39.2c-6.7,6.7-6.7,17.5,0,24.1c6.7,6.7,17.5,6.7,24.1,0
		l68.3-68.3c3.2-3.2,5-7.6,5-12.1s-1.8-8.9-5-12.1L215.8,346.2z M74,104.4c-1.8-2.7-3.3-5.7-4.3-8.9s-1.5-6.6-1.5-10.2
		c0-4.8,1-9.2,2.7-13.3c2.6-6.1,6.9-11.3,12.4-15c2.7-1.8,5.7-3.3,8.9-4.3s6.6-1.5,10.2-1.5c4.8,0,9.2,1,13.3,2.7
		c6.1,2.6,11.3,6.9,15,12.4c1.8,2.7,3.3,5.7,4.3,8.9c1,3.2,1.5,6.6,1.5,10.2c0,4.8-1,9.2-2.7,13.3c-2.6,6.1-6.9,11.3-12.4,15
		c-2.7,1.8-5.7,3.3-8.9,4.3c-3,1-6.3,1.4-9.7,1.5c-0.5,0-1.1-0.1-1.6-0.1c-0.3,0-0.6,0-0.8,0c-4.1-0.2-7.8-1.2-11.4-2.6
		C82.9,114.2,77.7,109.9,74,104.4z"/>
	<path d="M472.5,400.1c-5.2-12.3-13.8-22.7-24.7-30c-5.4-3.7-11.5-6.6-17.9-8.6c-1-0.3-2.1-0.6-3.1-0.9V149.4
		c0-11.1-2.3-21.9-6.4-31.6c-6.2-14.6-16.4-26.9-29.4-35.7c-6.5-4.4-13.6-7.8-21.2-10.2c-7.6-2.4-15.7-3.6-24.1-3.6h-65.6l39.2-39.2
		c6.7-6.7,6.7-17.5,0-24.1c-6.7-6.7-17.5-6.7-24.1,0l-68.3,68.3c-6.7,6.7-6.7,17.5,0,24.1l68.3,68.3c6.7,6.7,17.5,6.7,24.1,0
		c6.6-6.7,6.6-17.5,0-24.2l-39.1-39.1h65.4c6.5,0,12.7,1.3,18.3,3.7c8.4,3.5,15.6,9.5,20.7,17c2.5,3.7,4.5,7.9,5.9,12.3
		c1.4,4.4,2.1,9.1,2.1,14v211.1c-3.3,0.8-6.5,1.9-9.6,3.3c-12.3,5.2-22.7,13.8-30,24.7c-3.7,5.4-6.6,11.5-8.6,17.9
		c-2,6.4-3.1,13.3-3.1,20.3c0,9.4,1.9,18.4,5.4,26.6c5.2,12.3,13.8,22.7,24.7,30c5.4,3.7,11.5,6.6,17.9,8.6c6.4,2,13.3,3.1,20.3,3.1
		c9.4,0,18.4-1.9,26.6-5.4c12.3-5.2,22.7-13.8,30-24.7c3.7-5.4,6.6-11.5,8.6-17.9c2-6.4,3.1-13.3,3.1-20.3
		C477.9,417.3,476,408.3,472.5,400.1z M441,440.1c-2.6,6.1-6.9,11.3-12.4,15c-2.7,1.8-5.7,3.3-8.9,4.3c-3.2,1-6.6,1.5-10.2,1.5
		c-4.8,0-9.2-1-13.3-2.7c-6.1-2.6-11.3-6.9-15-12.4c-1.8-2.7-3.3-5.7-4.3-8.9s-1.5-6.6-1.5-10.2c0-4.8,1-9.2,2.7-13.3
		c2.6-6.1,6.9-11.3,12.4-15c2.7-1.8,5.7-3.3,8.9-4.3s6.6-1.5,10.2-1.5c4.8,0,9.2,1,13.3,2.7c6.1,2.6,11.3,6.9,15,12.4
		c1.8,2.7,3.3,5.7,4.3,8.9c1,3.2,1.5,6.6,1.5,10.2C443.7,431.6,442.7,436,441,440.1z"/>
</g>
</svg>
