<?xml version="1.0" encoding="utf-8"?>
<!-- Generator: Adobe Illustrator 24.1.1, SVG Export Plug-In . SVG Version: 6.00 Build 0)  -->
<svg version="1.1" id="Layer_1" xmlns="http://www.w3.org/2000/svg" xmlns:xlink="http://www.w3.org/1999/xlink" x="0px" y="0px"
	 viewBox="0 0 512 512" style="enable-background:new 0 0 512 512;" xml:space="preserve">
<g>
	<path d="M256,485.1l-6.6-1.7c-2.5-1.4-62.7-35.1-123.7-90.2c-36.1-32.6-65-66-85.8-99.2C13.4,251.7,0,209.4,0,168.4
		c0-78,63.5-141.5,141.5-141.5c26.4,0,54.5,9.9,79,27.9C234.8,65.3,247,78,256,91.4c9-13.4,21.2-26.1,35.5-36.6
		c24.5-18,52.6-27.9,79-27.9c78,0,141.5,63.5,141.5,141.5c0,41-13.4,83.2-39.9,125.6c-20.8,33.2-49.6,66.6-85.8,99.2
		c-61.1,55.1-121.2,88.8-123.7,90.2L256,485.1L256,485.1z M141.5,53.9c-63.1,0-114.5,51.4-114.5,114.5
		c0,81.9,63.3,156.3,116.4,204.4c47.4,42.9,95.5,73,112.6,83.2c17.1-10.2,65.2-40.3,112.6-83.2c53.1-48,116.4-122.5,116.4-204.4
		c0-63.1-51.4-114.5-114.5-114.5c-45.9,0-90.5,37.8-101.8,71.6c-1.8,5.5-7,9.2-12.8,9.2c-5.8,0-10.9-3.7-12.8-9.2
		C231.9,91.6,187.4,53.9,141.5,53.9z"/>
</g>
</svg>
