<?xml version="1.0" encoding="utf-8"?>
<!-- Generator: Adobe Illustrator 24.1.1, SVG Export Plug-In . SVG Version: 6.00 Build 0)  -->
<svg version="1.1" id="Layer_1" xmlns="http://www.w3.org/2000/svg" xmlns:xlink="http://www.w3.org/1999/xlink" x="0px" y="0px"
	 viewBox="0 0 512 512" style="enable-background:new 0 0 512 512;" xml:space="preserve">
<g>
	<path d="M256,25.6v25.6c42.4,0.1,76.7,34.4,76.8,76.8c-0.1,42.4-34.4,76.7-76.8,76.8c-42.4-0.1-76.7-34.4-76.8-76.8
		c0.1-42.4,34.4-76.7,76.8-76.8V25.6V0c-70.7,0-128,57.3-128,128c0,70.7,57.3,128,128,128c70.7,0,128-57.3,128-128
		C384,57.3,326.7,0,256,0V25.6z"/>
	<path d="M115.2,486.4v-51.2c0.1-42.4,34.4-76.7,76.8-76.8h128c42.4,0.1,76.7,34.4,76.8,76.8v51.2c0,14.1,11.5,25.6,25.6,25.6
		s25.6-11.5,25.6-25.6v-51.2c0-70.7-57.3-128-128-128H192c-70.7,0-128,57.3-128,128v51.2c0,14.1,11.5,25.6,25.6,25.6
		S115.2,500.5,115.2,486.4z"/>
</g>
</svg>
